<svg width="16" height="24" viewBox="0 0 16 24" fill="none" xmlns="http://www.w3.org/2000/svg">
<path fill-rule="evenodd" clip-rule="evenodd" d="M1.2045 8.38729C1.64384 8.82663 2.35616 8.82663 2.7955 8.38729L8 3.18279L13.2045 8.38729C13.6438 8.82663 14.3562 8.82663 14.7955 8.38729C15.2348 7.94795 15.2348 7.23564 14.7955 6.7963L8 0.000806808L1.2045 6.7963C0.765165 7.23564 0.765165 7.94795 1.2045 8.38729Z" fill="white" fill-opacity="0.6"/>
<path fill-rule="evenodd" clip-rule="evenodd" d="M1.2045 15.0463C1.64384 14.607 2.35616 14.607 2.7955 15.0463L8 20.2508L13.2045 15.0463C13.6438 14.607 14.3562 14.607 14.7955 15.0463C15.2348 15.4856 15.2348 16.198 14.7955 16.6373L8 23.4328L1.2045 16.6373C0.765165 16.198 0.765165 15.4856 1.2045 15.0463Z" fill="white" fill-opacity="0.6"/>
</svg>
