<svg width="40" height="40" viewBox="0 0 40 40" fill="none" xmlns="http://www.w3.org/2000/svg">
<g filter="url(#filter0_i_3014_10084)">
<path d="M0.00195312 20C0.00195312 8.95431 8.95626 0 20.002 0C31.0476 0 40.002 8.95431 40.002 20C40.002 31.0457 31.0476 40 20.002 40C8.95626 40 0.00195312 31.0457 0.00195312 20Z" fill="#F35C21"/>
<path d="M0.501953 20C0.501953 9.23045 9.2324 0.5 20.002 0.5C30.7715 0.5 39.502 9.23045 39.502 20C39.502 30.7696 30.7715 39.5 20.002 39.5C9.2324 39.5 0.501953 30.7696 0.501953 20Z" stroke="url(#paint0_linear_3014_10084)" stroke-opacity="0.5"/>
</g>
<defs>
<filter id="filter0_i_3014_10084" x="0.00195312" y="0" width="40" height="40" filterUnits="userSpaceOnUse" color-interpolation-filters="sRGB">
<feFlood flood-opacity="0" result="BackgroundImageFix"/>
<feBlend mode="normal" in="SourceGraphic" in2="BackgroundImageFix" result="shape"/>
<feColorMatrix in="SourceAlpha" type="matrix" values="0 0 0 0 0 0 0 0 0 0 0 0 0 0 0 0 0 0 127 0" result="hardAlpha"/>
<feOffset/>
<feGaussianBlur stdDeviation="13.5"/>
<feComposite in2="hardAlpha" operator="arithmetic" k2="-1" k3="1"/>
<feColorMatrix type="matrix" values="0 0 0 0 1 0 0 0 0 1 0 0 0 0 1 0 0 0 0.15 0"/>
<feBlend mode="normal" in2="shape" result="effect1_innerShadow_3014_10084"/>
</filter>
<linearGradient id="paint0_linear_3014_10084" x1="-1.63867" y1="1.98454e-07" x2="21.0958" y2="50.4113" gradientUnits="userSpaceOnUse">
<stop stop-color="white"/>
<stop offset="0.296439" stop-color="white" stop-opacity="0.43"/>
<stop offset="1" stop-color="white" stop-opacity="0"/>
</linearGradient>
</defs>
</svg>
