<svg width="48" height="48" viewBox="0 0 48 48" fill="none" xmlns="http://www.w3.org/2000/svg">
<path d="M0 16C0 7.16344 7.16344 0 16 0H32C40.8366 0 48 7.16344 48 16V32C48 40.8366 40.8366 48 32 48H16C7.16344 48 0 40.8366 0 32V16Z" fill="#F7931A"/>
<path d="M34.5169 21.1782C34.949 17.9735 32.514 16.3004 29.1758 15.1694L30.2126 10.8336L27.5734 10.1974L26.568 14.4389C25.8689 14.2739 25.162 14.109 24.463 13.9676L25.4684 9.72607L22.7978 9.08984L21.7609 13.4256C21.1954 13.2921 20.622 13.19 20.0565 13.0565L16.4198 12.1846L15.7521 14.9887C15.7521 14.9887 17.7236 15.4207 17.6529 15.46C18.7212 15.7271 18.9254 16.4261 18.8861 16.9602L17.7158 21.9008C17.7865 21.9323 17.8807 21.9323 17.9828 22.003C17.8807 21.9715 17.8179 21.9715 17.7158 21.9401L16.1134 28.8522C15.9799 29.1821 15.6421 29.6534 14.9117 29.4885C14.9431 29.5199 12.9716 29.0172 12.9716 29.0172L11.7227 32.057L15.163 32.8581C15.7992 33.0231 16.4355 33.1566 17.0324 33.3294L15.9956 37.7045L18.6348 38.3407L19.6716 34.0049C20.4099 34.2013 21.109 34.3741 21.7767 34.539L20.7398 38.8434L23.379 39.4796L24.4158 35.1046C28.9244 35.9058 32.2941 35.5366 33.6608 31.4286C34.7604 28.1532 33.5587 26.2838 31.1551 25.0506C32.9146 24.65 34.1871 23.5111 34.5169 21.1782ZM28.5788 29.6848C27.809 32.9602 22.2715 31.2558 20.4963 30.8238L21.8631 25.0113C23.6696 25.4512 29.38 26.2523 28.5788 29.6848ZM29.3093 21.1782C28.6102 24.1473 23.9995 22.7177 22.4993 22.3486L23.7717 17.0781C25.2406 17.4394 30.0476 18.0756 29.3093 21.1782Z" fill="white"/>
</svg>
