<svg width="40" height="40" viewBox="0 0 40 40" fill="none" xmlns="http://www.w3.org/2000/svg">
<g filter="url(#filter0_i_3171_910)">
<path d="M0.00195312 12C0.00195312 5.37258 5.37454 0 12.002 0L28.002 0C34.6294 0 40.002 5.37258 40.002 12V28C40.002 34.6274 34.6294 40 28.002 40H12.002C5.37454 40 0.00195312 34.6274 0.00195312 28L0.00195312 12Z" fill="black"/>
<path d="M0.339453 12C0.339453 5.55898 5.56093 0.3375 12.002 0.3375L28.002 0.3375C34.443 0.3375 39.6645 5.55898 39.6645 12V28C39.6645 34.441 34.443 39.6625 28.002 39.6625H12.002C5.56094 39.6625 0.339453 34.441 0.339453 28L0.339453 12Z" stroke="url(#paint0_linear_3171_910)" stroke-opacity="0.5" stroke-width="0.675"/>
</g>
<defs>
<filter id="filter0_i_3171_910" x="0.00195312" y="0" width="40" height="40" filterUnits="userSpaceOnUse" color-interpolation-filters="sRGB">
<feFlood flood-opacity="0" result="BackgroundImageFix"/>
<feBlend mode="normal" in="SourceGraphic" in2="BackgroundImageFix" result="shape"/>
<feColorMatrix in="SourceAlpha" type="matrix" values="0 0 0 0 0 0 0 0 0 0 0 0 0 0 0 0 0 0 127 0" result="hardAlpha"/>
<feOffset/>
<feGaussianBlur stdDeviation="13.5"/>
<feComposite in2="hardAlpha" operator="arithmetic" k2="-1" k3="1"/>
<feColorMatrix type="matrix" values="0 0 0 0 1 0 0 0 0 1 0 0 0 0 1 0 0 0 0.15 0"/>
<feBlend mode="normal" in2="shape" result="effect1_innerShadow_3171_910"/>
</filter>
<linearGradient id="paint0_linear_3171_910" x1="-1.63867" y1="1.98454e-07" x2="21.0958" y2="50.4113" gradientUnits="userSpaceOnUse">
<stop stop-color="white"/>
<stop offset="0.296439" stop-color="white" stop-opacity="0.43"/>
<stop offset="1" stop-color="white" stop-opacity="0"/>
</linearGradient>
</defs>
</svg>
