<svg width="24" height="24" viewBox="0 0 24 24" fill="none" xmlns="http://www.w3.org/2000/svg">
<path d="M13.4794 4.45298C12.175 4.4452 10.8878 4.44313 9.61758 4.44676C8.7225 4.44909 7.68899 4.48253 6.89033 4.80293C5.18026 5.48882 4.53713 6.89794 4.48814 8.75032C4.44718 10.3098 4.43448 11.8698 4.45004 13.4303C4.45055 13.4583 4.43733 13.4756 4.41037 13.4824C3.73796 13.6519 3.11817 13.9352 2.55099 14.3324C2.52041 14.3536 2.50511 14.3456 2.50511 14.3083C2.49889 12.7161 2.49785 11.1276 2.502 9.54276C2.50511 8.58468 2.5611 7.54106 2.8294 6.65764C3.55418 4.27256 5.40267 2.86578 7.86863 2.59282C8.40158 2.53424 8.90032 2.50494 9.36484 2.50494C11.0477 2.50391 12.7274 2.50365 14.4041 2.50417C14.4091 2.50417 14.4141 2.50557 14.4184 2.50823C14.4227 2.51089 14.4262 2.51469 14.4284 2.51921C14.4307 2.52373 14.4316 2.52879 14.4312 2.53383C14.4307 2.53886 14.4289 2.54367 14.4259 2.54771C13.993 3.10867 13.691 3.73338 13.5199 4.42187C13.5177 4.43091 13.5125 4.43894 13.5052 4.44461C13.4978 4.45027 13.4887 4.45323 13.4794 4.45298Z" fill="white" fill-opacity="0.6"/>
<path d="M18.3847 8.43379C19.9369 8.43379 21.1951 7.1755 21.1951 5.62333C21.1951 4.07115 19.9369 2.81287 18.3847 2.81287C16.8325 2.81287 15.5742 4.07115 15.5742 5.62333C15.5742 7.1755 16.8325 8.43379 18.3847 8.43379Z" fill="white" fill-opacity="0.6"/>
<path d="M13.7965 11.5786C14.5511 11.5786 15.1629 10.9669 15.1629 10.2123C15.1629 9.45768 14.5511 8.84595 13.7965 8.84595C13.0419 8.84595 12.4302 9.45768 12.4302 10.2123C12.4302 10.9669 13.0419 11.5786 13.7965 11.5786Z" fill="white" fill-opacity="0.6"/>
<path d="M15.2016 21.4673C13.4246 21.5054 11.5248 21.5023 9.54334 21.4774C9.50343 21.4769 9.49539 21.4609 9.51924 21.4292C9.93347 20.8792 10.2295 20.2705 10.4073 19.6033C10.4114 19.5879 10.4204 19.5742 10.4331 19.5644C10.4457 19.5546 10.4612 19.5491 10.4773 19.5489C11.9253 19.5317 13.3624 19.5281 14.7887 19.538C16.6029 19.5504 18.1894 19.1048 19.0518 17.429C19.3885 16.7757 19.5098 15.9561 19.5238 15.2142C19.5492 13.8704 19.5578 12.3122 19.5495 10.5397C19.5495 10.5101 19.5637 10.4917 19.5923 10.4845C20.273 10.316 20.8902 10.0184 21.4439 9.59171C21.4729 9.56941 21.4877 9.57641 21.4882 9.6127C21.5105 11.5128 21.5024 13.4108 21.4641 15.3067C21.3871 19.1569 18.9367 21.3865 15.2016 21.4673Z" fill="white" fill-opacity="0.6"/>
<path d="M10.1816 15.1956C10.9366 15.1956 11.5487 14.5835 11.5487 13.8284C11.5487 13.0734 10.9366 12.4613 10.1816 12.4613C9.42654 12.4613 8.81445 13.0734 8.81445 13.8284C8.81445 14.5835 9.42654 15.1956 10.1816 15.1956Z" fill="white" fill-opacity="0.6"/>
<path d="M5.54532 21.1795C7.0975 21.1795 8.35579 19.9212 8.35579 18.3691C8.35579 16.8169 7.0975 15.5586 5.54532 15.5586C3.99315 15.5586 2.73486 16.8169 2.73486 18.3691C2.73486 19.9212 3.99315 21.1795 5.54532 21.1795Z" fill="white" fill-opacity="0.6"/>
</svg>
