<svg width="24" height="24" viewBox="0 0 24 24" fill="none" xmlns="http://www.w3.org/2000/svg">
<path d="M13.4799 4.45298C12.1755 4.4452 10.8882 4.44313 9.61807 4.44676C8.72299 4.44909 7.68948 4.48253 6.89082 4.80293C5.18075 5.48882 4.53762 6.89794 4.48863 8.75032C4.44767 10.3098 4.43497 11.8698 4.45052 13.4303C4.45104 13.4583 4.43782 13.4756 4.41086 13.4824C3.73845 13.6519 3.11865 13.9352 2.55148 14.3324C2.52089 14.3536 2.5056 14.3456 2.5056 14.3083C2.49938 12.7161 2.49834 11.1276 2.50249 9.54276C2.5056 8.58468 2.56159 7.54106 2.82989 6.65764C3.55466 4.27256 5.40316 2.86578 7.86912 2.59282C8.40207 2.53424 8.90081 2.50494 9.36533 2.50494C11.0482 2.50391 12.7279 2.50365 14.4046 2.50417C14.4096 2.50417 14.4146 2.50557 14.4189 2.50823C14.4232 2.51089 14.4266 2.51469 14.4289 2.51921C14.4312 2.52373 14.4321 2.52879 14.4317 2.53383C14.4312 2.53886 14.4294 2.54367 14.4263 2.54771C13.9934 3.10867 13.6915 3.73338 13.5204 4.42187C13.5182 4.43091 13.513 4.43894 13.5057 4.44461C13.4983 4.45027 13.4892 4.45323 13.4799 4.45298Z" fill="white"/>
<path d="M18.3847 8.43342C19.9369 8.43342 21.1951 7.17514 21.1951 5.62296C21.1951 4.07079 19.9369 2.8125 18.3847 2.8125C16.8325 2.8125 15.5742 4.07079 15.5742 5.62296C15.5742 7.17514 16.8325 8.43342 18.3847 8.43342Z" fill="white"/>
<path d="M13.796 11.5784C14.5506 11.5784 15.1624 10.9667 15.1624 10.2121C15.1624 9.45744 14.5506 8.8457 13.796 8.8457C13.0414 8.8457 12.4297 9.45744 12.4297 10.2121C12.4297 10.9667 13.0414 11.5784 13.796 11.5784Z" fill="white"/>
<path d="M15.2016 21.4665C13.4246 21.5046 11.5248 21.5015 9.54334 21.4766C9.50343 21.4761 9.49539 21.46 9.51924 21.4284C9.93347 20.8783 10.2295 20.2697 10.4073 19.6024C10.4114 19.587 10.4204 19.5734 10.4331 19.5636C10.4457 19.5537 10.4612 19.5483 10.4773 19.548C11.9253 19.5309 13.3624 19.5273 14.7887 19.5371C16.6029 19.5496 18.1894 19.104 19.0518 17.4281C19.3885 16.7749 19.5098 15.9552 19.5238 15.2133C19.5492 13.8695 19.5578 12.3114 19.5495 10.5388C19.5495 10.5093 19.5637 10.4909 19.5923 10.4836C20.273 10.3151 20.8902 10.0175 21.4439 9.59085C21.4729 9.56856 21.4877 9.57555 21.4882 9.61184C21.5105 11.5119 21.5024 13.4099 21.4641 15.3059C21.3871 19.1561 18.9367 21.3856 15.2016 21.4665Z" fill="white"/>
<path d="M10.1816 15.1952C10.9366 15.1952 11.5487 14.5831 11.5487 13.8281C11.5487 13.073 10.9366 12.4609 10.1816 12.4609C9.42654 12.4609 8.81445 13.073 8.81445 13.8281C8.81445 14.5831 9.42654 15.1952 10.1816 15.1952Z" fill="white"/>
<path d="M5.54484 21.1795C7.09701 21.1795 8.3553 19.9212 8.3553 18.3691C8.3553 16.8169 7.09701 15.5586 5.54484 15.5586C3.99266 15.5586 2.73438 16.8169 2.73438 18.3691C2.73438 19.9212 3.99266 21.1795 5.54484 21.1795Z" fill="white"/>
</svg>
