<svg width="20" height="20" viewBox="0 0 20 20" fill="none" xmlns="http://www.w3.org/2000/svg">
<path d="M0 10C0 4.47715 4.47715 0 10 0V0C15.5228 0 20 4.47715 20 10V10C20 15.5228 15.5228 20 10 20V20C4.47715 20 0 15.5228 0 10V10Z" fill="#F7931A"/>
<path d="M14.3824 8.82393C14.5624 7.48863 13.5478 6.79153 12.1569 6.32025L12.5889 4.51367L11.4892 4.24857L11.0703 6.01588C10.7791 5.94715 10.4845 5.87842 10.1932 5.81951L10.6121 4.0522L9.49939 3.78711L9.06738 5.59369C8.83174 5.53805 8.59283 5.4955 8.35719 5.43987L6.84189 5.07659L6.5637 6.24497C6.5637 6.24497 7.38517 6.42498 7.35572 6.44134C7.80082 6.55261 7.88591 6.84389 7.86955 7.06644L7.3819 9.12503C7.41136 9.13812 7.45063 9.13812 7.49318 9.16757C7.45063 9.15448 7.42445 9.15448 7.3819 9.14139L6.71425 12.0214C6.65862 12.1589 6.51789 12.3553 6.21352 12.2865C6.22661 12.2996 5.40514 12.0902 5.40514 12.0902L4.88477 13.3567L6.31825 13.6906C6.58334 13.7593 6.84844 13.8149 7.09717 13.8869L6.66516 15.7099L7.76482 15.975L8.19682 14.1684C8.50447 14.2502 8.79574 14.3222 9.07393 14.3909L8.64192 16.1844L9.74158 16.4495L10.1736 14.6266C12.0522 14.9604 13.4562 14.8066 14.0257 13.0949C14.4838 11.7302 13.9831 10.9512 12.9816 10.4374C13.7147 10.2705 14.2449 9.79595 14.3824 8.82393ZM11.9082 12.3684C11.5874 13.7331 9.28012 13.0229 8.54047 12.8429L9.10993 10.421C9.86267 10.6043 12.242 10.9381 11.9082 12.3684ZM12.2125 8.82393C11.9213 10.061 10.0001 9.46539 9.37503 9.31157L9.90522 7.11553C10.5172 7.26608 12.5202 7.53118 12.2125 8.82393Z" fill="white"/>
</svg>
