<svg width="16" height="16" viewBox="0 0 16 16" fill="none" xmlns="http://www.w3.org/2000/svg">
<path d="M7.99984 15.3334C12.0116 15.3334 15.3332 12.0047 15.3332 8.00008C15.3332 3.98832 12.0045 0.666748 7.99266 0.666748C3.98808 0.666748 0.666504 3.98832 0.666504 8.00008C0.666504 12.0047 3.99527 15.3334 7.99984 15.3334ZM7.19461 11.5158C6.95018 11.5158 6.74887 11.4151 6.56194 11.1635L4.75736 8.94912C4.64952 8.80531 4.58481 8.64715 4.58481 8.48181C4.58481 8.15824 4.83645 7.89223 5.15998 7.89223C5.36847 7.89223 5.52665 7.95695 5.70638 8.1942L7.16589 10.0779L10.2358 5.14584C10.3724 4.93016 10.5593 4.81512 10.7463 4.81512C11.0626 4.81512 11.3574 5.03081 11.3574 5.36872C11.3574 5.52689 11.2639 5.69225 11.1776 5.84323L7.79854 11.1635C7.64756 11.4008 7.43909 11.5158 7.19461 11.5158Z" fill="white"/>
</svg>
