<svg width="20" height="20" viewBox="0 0 20 20" fill="none" xmlns="http://www.w3.org/2000/svg">
<rect width="20" height="20" rx="10" fill="#5065E4"/>
<path d="M10.0072 12.4748C9.96832 12.4881 9.94617 12.4543 9.91975 12.4387C8.62469 11.6744 7.33106 10.9095 6.03885 10.1441C6.02634 10.1378 6.01335 10.1325 6 10.1282V10.1111L6.02292 10.0979C6.05547 10.0894 6.08751 10.079 6.11889 10.0668L9.17069 8.67826C9.44265 8.55432 9.71462 8.43233 9.98658 8.30955H10.006C10.006 8.34841 10.006 8.38298 10.006 8.41989C10.007 9.77167 10.0074 11.1233 10.0072 12.4748Z" fill="#B9C2F4"/>
<path d="M10.0091 8.3105H9.98967C9.98967 8.27164 9.99356 8.23279 9.99356 8.192C9.99356 6.67367 9.99356 5.15522 9.99356 3.63664C9.98909 3.59764 9.99172 3.55815 10.0013 3.52008H10.0095C10.1692 3.75591 10.3083 4.00456 10.4551 4.24816C11.6186 6.17806 12.7814 8.10769 13.9436 10.0371C13.9549 10.0561 13.9638 10.0759 13.9739 10.0969C13.941 10.0899 13.9087 10.0804 13.8772 10.0685C13.6639 9.97218 13.4498 9.87428 13.2385 9.77598C12.9074 9.62446 12.5763 9.4732 12.245 9.32219L10.649 8.59916C10.4365 8.50126 10.2228 8.40607 10.0091 8.3105Z" fill="#B9C2F4"/>
<path d="M10.0026 3.51807C9.993 3.55614 9.99037 3.59563 9.99484 3.63463C9.99484 5.15295 9.99484 6.67141 9.99484 8.18999C9.99484 8.22884 9.99251 8.26769 9.99095 8.30849C9.71899 8.43126 9.44703 8.55325 9.17507 8.67719L6.12326 10.0658C6.09189 10.0779 6.05985 10.0883 6.0273 10.0968C6.11549 9.91345 6.2301 9.74717 6.33462 9.57156C7.54549 7.55878 8.75728 5.54639 9.96997 3.53439C9.97798 3.52325 9.98668 3.51261 9.996 3.50253L10.0026 3.51807Z" fill="white"/>
<path d="M10.0091 8.3105C10.2228 8.40607 10.4365 8.50129 10.6498 8.59764L12.2459 9.32067C12.5774 9.47142 12.9085 9.62268 13.2393 9.77446C13.4522 9.87198 13.6667 9.97066 13.878 10.067C13.9095 10.0789 13.9418 10.0883 13.9748 10.0954C14.0136 10.1439 13.9561 10.1459 13.9386 10.1564C13.6072 10.3545 13.2743 10.5499 12.9421 10.7465C11.9887 11.3107 11.0355 11.8747 10.0826 12.4385C10.0585 12.4525 10.0324 12.4628 10.0072 12.4748C10.0072 11.1236 10.0072 9.77239 10.0072 8.42087C10.0076 8.38396 10.0087 8.3474 10.0091 8.3105Z" fill="#7384E9"/>
<path d="M9.99352 13.2424L12.4897 11.7711C12.9663 11.4898 13.4426 11.2083 13.9187 10.9265L13.9618 10.9028C13.9661 10.9416 13.9393 10.9622 13.923 10.9848C12.8351 12.5184 11.7473 14.0514 10.6594 15.584C10.4535 15.8746 10.248 16.1668 10.0401 16.4551C10.0293 16.4702 10.0126 16.5413 9.97914 16.466C10.0056 16.4434 9.99391 16.4131 9.99391 16.3882C9.99416 15.3393 9.99403 14.2906 9.99352 13.2424Z" fill="#B9C2F4"/>
<path d="M9.99352 13.2424C9.99352 14.2906 9.9933 15.3388 9.9933 16.3865C9.9933 16.4133 10.005 16.4436 9.97854 16.4642C9.92298 16.4308 9.89889 16.371 9.86198 16.3216C8.6006 14.5448 7.33986 12.7677 6.07977 10.9904C6.06384 10.9679 6.04907 10.9438 6.03276 10.9189C6.06539 10.8999 6.08288 10.9259 6.10191 10.9372C7.37755 11.6904 8.65292 12.4442 9.92803 13.1987C9.95173 13.2135 9.97215 13.2284 9.99352 13.2424Z" fill="white"/>
<path d="M10.0026 3.51807L9.99357 3.50368C10.0107 3.4928 10.0083 3.50873 10.0111 3.51689L10.0026 3.51807Z" fill="#393939"/>
</svg>
