<svg width="24" height="20" viewBox="0 0 24 20" fill="none" xmlns="http://www.w3.org/2000/svg">
<path d="M8.00268 20C11.3092 20 13.4735 15.2588 13.4735 9.23707C13.4735 4.12353 11.4369 0 8.24231 0C6.18969 0 4.60034 1.98911 4.60034 4.52319C4.60034 8.27429 7.31583 11.3261 10.1431 12.8428C10.2549 12.8974 10.3508 12.9246 10.4466 12.9246C10.7661 12.9246 11.0056 12.634 11.0056 12.3161C11.0056 12.0981 10.9018 11.8802 10.6702 11.753C8.84131 10.7448 5.8223 8.18346 5.8223 4.52319C5.8223 2.75204 6.87652 1.38056 8.24231 1.38056C10.6942 1.38056 12.2596 4.93188 12.2596 9.23707C12.2596 14.3778 10.4945 18.6195 8.14642 18.6195C7.37969 18.6195 7.02032 18.0473 7.02032 17.2298C7.02032 14.6958 10.3987 9.7548 15.0389 9.7548C15.3185 9.7548 15.4782 9.89105 15.4782 10.1271C15.4782 10.9174 15.1029 11.5349 15.1029 12.3252C15.1029 13.0155 15.5421 13.4333 16.1331 13.4333C17.7544 13.4333 19.7032 10.2816 20.3581 10.2816C20.9491 10.2816 20.2144 13.1154 22.219 13.1154C22.5545 13.1154 22.9777 13.0155 23.3052 12.7702C23.4969 12.6249 23.6327 12.4069 23.6327 12.1254C23.6327 11.7802 23.433 11.4987 23.1215 11.4987C22.8419 11.4987 22.6104 11.762 22.3388 11.762C21.4762 11.762 22.2989 8.74661 20.7095 8.74661C19.3118 8.74661 17.1475 11.8165 16.5883 11.8165C16.5245 11.8165 16.4686 11.7711 16.4686 11.6621C16.4686 11.3351 16.82 10.5904 16.82 9.86377C16.82 8.95549 16.1571 8.3742 15.1268 8.3742C9.7917 8.3742 5.77439 14.0691 5.77439 17.4932C5.77439 18.9555 6.50117 20 8.00268 20ZM0.638936 16.6758H23.3531C23.7045 16.6758 24 16.3397 24 15.94C24 15.5404 23.7045 15.2134 23.3531 15.2134H0.638936C0.287521 15.2134 0 15.5404 0 15.94C0 16.3397 0.287521 16.6758 0.638936 16.6758ZM0.415308 13.1335C0.622962 13.3696 0.934441 13.3606 1.1421 13.1335L3.87355 10.0363C4.08919 9.80022 4.08919 9.44594 3.87355 9.20978C3.6659 8.96456 3.35442 8.9737 3.14676 9.20978L0.415308 12.2979C0.199668 12.5431 0.199668 12.8974 0.415308 13.1335ZM3.14676 13.1335C3.35442 13.3696 3.6659 13.3696 3.87355 13.1335C4.08919 12.8974 4.08919 12.5341 3.87355 12.2979L1.1421 9.20978C0.934441 8.96456 0.622962 8.96456 0.415308 9.20978C0.199668 9.44594 0.199668 9.80929 0.415308 10.0363L3.14676 13.1335Z" fill="white"/>
</svg>
