<svg width="139" height="126" viewBox="0 0 139 126" fill="none" xmlns="http://www.w3.org/2000/svg">
<g opacity="0.1" clip-path="url(#clip0_3014_9863)">
<g filter="url(#filter0_ii_3014_9863)">
<path fill-rule="evenodd" clip-rule="evenodd" d="M151.74 72.5362C160.686 105.922 140.451 140.971 107.065 149.917C73.7388 158.847 38.6301 138.627 29.6844 105.241C20.7547 71.915 40.9741 36.8065 74.3001 27.8768C107.686 18.931 142.81 39.2103 151.74 72.5362ZM54.3325 69.9077C49.9654 78.2601 48.9117 87.9692 51.3966 97.243C53.9297 106.697 59.6208 114.534 67.6549 119.627C69.6754 120.946 72.1605 120.408 73.1476 118.348C74.1229 116.484 73.3984 114.498 71.3298 113C65.1324 109.017 60.6722 102.902 58.6362 95.3032C56.6483 87.8842 57.4212 80.2383 60.8289 73.8102C61.8876 71.5386 61.4899 69.3366 59.7889 68.2534C57.8281 66.919 55.3911 67.6362 54.3325 69.9077ZM67.6961 77.421C65.5554 82.3552 65.0634 87.9381 66.4741 93.203C67.917 98.5879 71.1504 103.236 75.4715 106.439C77.4205 107.969 80.1888 107.291 81.2357 105.215C82.0913 103.383 81.4308 101.636 79.3141 99.9588C76.6504 97.9151 74.7077 94.9729 73.7137 91.2631C72.7998 87.8526 73.0549 84.2574 74.3079 81.036C75.2586 78.6009 74.8813 76.7141 73.2999 75.5988C71.2794 74.2805 68.619 75.1216 67.6961 77.421ZM101.052 73.8698C103.688 76.0492 105.707 79.0351 106.621 82.4457C107.615 86.1554 107.403 89.6749 106.118 92.7766C105.124 95.2873 105.426 97.1304 107.083 98.2897C109.027 99.5641 111.764 98.7669 112.687 96.4675C114.827 91.5331 115.304 85.8907 113.861 80.5058C112.45 75.2409 109.232 70.652 104.911 67.4492C102.962 65.9194 100.238 66.5211 99.1472 68.673C98.3352 70.4296 99.0119 72.2363 101.052 73.8698ZM109.113 60.8726C115.278 64.7356 119.77 70.9707 121.758 78.3897C123.794 85.9884 122.989 93.5143 119.614 100.062C118.511 102.41 118.877 104.492 120.654 105.619C122.538 106.91 124.96 106.133 126.05 103.98C130.461 95.5524 131.531 85.9033 128.998 76.4498C126.513 67.176 120.686 59.3106 112.728 54.2607C110.675 52.8228 108.206 53.4203 107.176 55.5561C106.244 57.3449 107 59.4507 109.113 60.8726ZM88.2594 79.7347C84.3108 80.7927 81.9296 84.8295 82.9877 88.7782C84.0457 92.7269 88.1262 95.0323 92.0749 93.9742C96.0273 92.9152 98.251 88.6626 97.299 84.759C96.1719 80.9149 92.2099 78.6761 88.2594 79.7347Z" fill="url(#paint0_linear_3014_9863)"/>
</g>
</g>
<defs>
<filter id="filter0_ii_3014_9863" x="27.5713" y="-5.19819" width="126.287" height="188.187" filterUnits="userSpaceOnUse" color-interpolation-filters="sRGB">
<feFlood flood-opacity="0" result="BackgroundImageFix"/>
<feBlend mode="normal" in="SourceGraphic" in2="BackgroundImageFix" result="shape"/>
<feColorMatrix in="SourceAlpha" type="matrix" values="0 0 0 0 0 0 0 0 0 0 0 0 0 0 0 0 0 0 127 0" result="hardAlpha"/>
<feOffset dy="-30.9592"/>
<feGaussianBlur stdDeviation="15.4796"/>
<feComposite in2="hardAlpha" operator="arithmetic" k2="-1" k3="1"/>
<feColorMatrix type="matrix" values="0 0 0 0 0 0 0 0 0 0 0 0 0 0 0 0 0 0 0.1 0"/>
<feBlend mode="normal" in2="shape" result="effect1_innerShadow_3014_9863"/>
<feColorMatrix in="SourceAlpha" type="matrix" values="0 0 0 0 0 0 0 0 0 0 0 0 0 0 0 0 0 0 127 0" result="hardAlpha"/>
<feOffset dy="30.9592"/>
<feGaussianBlur stdDeviation="30.9592"/>
<feComposite in2="hardAlpha" operator="arithmetic" k2="-1" k3="1"/>
<feColorMatrix type="matrix" values="0 0 0 0 1 0 0 0 0 1 0 0 0 0 1 0 0 0 0.25 0"/>
<feBlend mode="normal" in2="effect1_innerShadow_3014_9863" result="effect2_innerShadow_3014_9863"/>
</filter>
<linearGradient id="paint0_linear_3014_9863" x1="74.3599" y1="27.8608" x2="107.065" y2="149.917" gradientUnits="userSpaceOnUse">
<stop stop-color="white" stop-opacity="0.8"/>
<stop offset="1" stop-color="white" stop-opacity="0"/>
</linearGradient>
<clipPath id="clip0_3014_9863">
<rect width="148" height="148" fill="white" transform="translate(0.373047 36.6816) rotate(-15)"/>
</clipPath>
</defs>
</svg>
