<svg width="22" height="22" viewBox="0 0 22 22" fill="none" xmlns="http://www.w3.org/2000/svg">
<path d="M15.9926 20.8044C19.5583 18.985 22 15.2777 22 11C22 4.92487 17.0751 0 11 0C4.92487 0 0 4.92487 0 11C0 16.2825 3.72357 20.6953 8.68919 21.7569L5.59623 17.692C5.24664 17.2326 5.07184 17.0029 5.033 16.763C4.99884 16.552 5.036 16.336 5.13904 16.1468C5.2562 15.9315 5.49869 15.7678 5.98368 15.4405L10.8576 12.1506C11.1259 11.9695 11.26 11.879 11.3188 11.7615C11.3705 11.6583 11.3836 11.5413 11.3561 11.4299C11.3248 11.3031 11.2139 11.1872 10.9921 10.9555L5.61855 5.34096C5.2127 4.91692 5.00977 4.70489 5.00062 4.52428C4.99266 4.36743 5.06202 4.2161 5.18789 4.11566C5.33282 4 5.63291 4 6.23311 4H11.1943C11.4528 4 11.582 4 11.7034 4.02832C11.8111 4.05343 11.9139 4.09483 12.0079 4.15096C12.114 4.21428 12.2045 4.30278 12.3855 4.47977L17.1974 9.18587C17.6614 9.63964 17.8934 9.86653 17.9644 10.12C18.0266 10.3426 18.0069 10.5789 17.9084 10.7891C17.7962 11.0285 17.5295 11.2171 16.996 11.5941L12.957 14.4488C12.7429 14.6001 12.6359 14.6758 12.5804 14.7742C12.5315 14.861 12.5105 14.9596 12.5199 15.0578C12.5307 15.1692 12.5982 15.2791 12.7332 15.4989L15.9926 20.8044Z" fill="white" fill-opacity="0.6"/>
</svg>
