<svg width="16" height="16" viewBox="0 0 16 16" fill="none" xmlns="http://www.w3.org/2000/svg">
<path fill-rule="evenodd" clip-rule="evenodd" d="M7.99984 4.00008C7.63165 4.00008 7.33317 3.7016 7.33317 3.33341V1.33341C7.33317 0.965225 7.63165 0.666748 7.99984 0.666748C8.36803 0.666748 8.6665 0.965225 8.6665 1.33341V3.33341C8.6665 3.7016 8.36803 4.00008 7.99984 4.00008Z" fill="white" fill-opacity="0.6"/>
<path fill-rule="evenodd" clip-rule="evenodd" d="M11.9998 8.00008C11.9998 7.63189 12.2983 7.33341 12.6665 7.33341H14.6665C15.0347 7.33341 15.3332 7.63189 15.3332 8.00008C15.3332 8.36827 15.0347 8.66675 14.6665 8.66675H12.6665C12.2983 8.66675 11.9998 8.36827 11.9998 8.00008Z" fill="white" fill-opacity="0.6"/>
<path fill-rule="evenodd" clip-rule="evenodd" d="M7.99984 12.0001C8.36803 12.0001 8.6665 12.2986 8.6665 12.6667V14.6667C8.6665 15.0349 8.36803 15.3334 7.99984 15.3334C7.63165 15.3334 7.33317 15.0349 7.33317 14.6667V12.6667C7.33317 12.2986 7.63165 12.0001 7.99984 12.0001Z" fill="white" fill-opacity="0.6"/>
<path fill-rule="evenodd" clip-rule="evenodd" d="M3.99984 8.00008C3.99984 8.36827 3.70136 8.66675 3.33317 8.66675H1.33317C0.964981 8.66675 0.666504 8.36827 0.666504 8.00008C0.666504 7.63189 0.964981 7.33341 1.33317 7.33341H3.33317C3.70136 7.33341 3.99984 7.63189 3.99984 8.00008Z" fill="white" fill-opacity="0.6"/>
<path fill-rule="evenodd" clip-rule="evenodd" d="M10.8283 5.17175C10.5679 4.91141 10.5679 4.4893 10.8283 4.22895L12.2425 2.81473C12.5028 2.55438 12.9249 2.55438 13.1853 2.81473C13.4456 3.07508 13.4456 3.49719 13.1853 3.75754L11.7711 5.17175C11.5107 5.4321 11.0886 5.4321 10.8283 5.17175Z" fill="white" fill-opacity="0.6"/>
<path fill-rule="evenodd" clip-rule="evenodd" d="M10.8283 10.8286C11.0886 10.5683 11.5107 10.5683 11.7711 10.8286L13.1853 12.2428C13.4456 12.5032 13.4456 12.9253 13.1853 13.1856C12.9249 13.446 12.5028 13.446 12.2425 13.1856L10.8283 11.7714C10.5679 11.5111 10.5679 11.089 10.8283 10.8286Z" fill="white" fill-opacity="0.6"/>
<path fill-rule="evenodd" clip-rule="evenodd" d="M5.17141 10.8286C5.43176 11.089 5.43176 11.5111 5.17141 11.7714L3.7572 13.1856C3.49685 13.446 3.07474 13.446 2.81439 13.1856C2.55404 12.9253 2.55404 12.5032 2.81439 12.2428L4.2286 10.8286C4.48895 10.5683 4.91106 10.5683 5.17141 10.8286Z" fill="white" fill-opacity="0.6"/>
<path fill-rule="evenodd" clip-rule="evenodd" d="M5.17141 5.17175C4.91106 5.4321 4.48895 5.4321 4.2286 5.17175L2.81439 3.75754C2.55404 3.49719 2.55404 3.07508 2.81439 2.81473C3.07474 2.55438 3.49685 2.55438 3.7572 2.81473L5.17141 4.22895C5.43176 4.4893 5.43176 4.91141 5.17141 5.17175Z" fill="white" fill-opacity="0.6"/>
</svg>
