<svg width="24" height="24" viewBox="0 0 24 24" fill="none" xmlns="http://www.w3.org/2000/svg">
<path d="M1.8457 9.5553C1.8457 14.3149 5.7183 18.1875 10.4779 18.1875C12.3601 18.1875 14.0801 17.5818 15.4972 16.5649L20.8193 21.8979C21.068 22.1467 21.3926 22.2656 21.7388 22.2656C22.4743 22.2656 22.9827 21.7139 22.9827 20.9892C22.9827 20.6431 22.8529 20.3293 22.6257 20.1021L17.336 14.78C18.4503 13.3305 19.1101 11.5241 19.1101 9.5553C19.1101 4.79569 15.2375 0.923096 10.4779 0.923096C5.7183 0.923096 1.8457 4.79569 1.8457 9.5553ZM3.69547 9.5553C3.69547 5.81252 6.73513 2.77286 10.4779 2.77286C14.2207 2.77286 17.2603 5.81252 17.2603 9.5553C17.2603 13.298 14.2207 16.3377 10.4779 16.3377C6.73513 16.3377 3.69547 13.298 3.69547 9.5553Z" fill="white" fill-opacity="0.6"/>
</svg>
