<svg width="630" height="172" viewBox="0 0 630 172" fill="none" xmlns="http://www.w3.org/2000/svg">
<path d="M1 120.114L4.75513 117.393L8.51026 113.43L12.2654 113.173L16.0205 117.841L19.7757 114.919L23.5308 116.397L27.2859 116.431L31.041 119.006L34.7962 125.6L38.5513 121.682L42.3064 124.189L46.0616 128.813L49.8167 129.899L53.5718 134.478L57.3269 143.905L61.0821 144.846L64.8372 138.834L68.5923 139.629L72.3475 143.088L76.1026 145.07L79.8577 140.524L83.6129 148.552L87.368 150.253L91.1231 151.843L94.8783 148.72L98.6334 133.303L102.389 99.0657L106.144 119.957L109.899 122.723L113.654 121.402L117.409 118.468L121.164 119.05L124.919 123.831L128.674 124.816L132.43 112.378L136.185 104.193L139.94 105.358L143.695 105.47L147.45 98.9202L151.205 103.869L154.96 99.939L158.715 99.8383L162.471 95.6286L166.226 87.422L169.981 54.2709L173.736 66.7991L177.491 65.4892L181.246 67.7284L185.001 64.0449L188.757 65.7355L192.512 72.0948L196.267 73.9757L200.022 74.2332L203.777 71.2887L207.532 77.4464L211.287 79.4505L215.042 84.7014L218.798 91.6093L222.553 123.338L226.308 122.409L230.063 126.708L233.818 142.248L237.573 137.714L241.328 128.578L245.083 134.949L248.839 132.329L252.594 133.18L256.349 141.565L260.104 168.738L263.859 171.167L267.614 166.118L271.369 160.274L275.125 151.687L278.88 149.716L282.635 144.141L286.39 142.215L290.145 149.929L293.9 147.163L297.655 152.605L301.41 153.388L305.166 135.755L308.921 151.507L312.676 147.007L316.431 148.596L320.186 147.824L323.941 143.928L327.696 132.094L331.451 134.255L335.207 124.559L338.962 122.801L342.717 122.443L346.472 120.618L350.227 119.151L353.982 131.4L357.737 146.178L361.492 137.826L365.248 132.609L369.003 133.919L372.758 127.425L376.513 131.344L380.268 132.183H384.023L387.778 134.702L391.534 139.483L395.289 142.327L399.044 147.656L402.799 146.033L406.554 142.853L410.309 136.964L414.064 135.374L417.819 133.09L421.575 127.683L425.33 139.405L429.085 142.461L432.84 145.148L436.595 139.774L440.35 118.177L444.105 86.168L447.861 70.4266L451.616 71.7141L455.371 68.5457L459.126 16.8989L462.881 24.333L466.636 34.5325L470.391 29.0577L474.146 33.3793L477.902 33.6144L481.657 40.5895L485.412 39.9625L489.167 36.7269L492.922 38.4286L496.677 38.1375L500.432 34.9915L504.187 33.3569L507.943 35.3162L511.698 33.6592L515.453 38.3615L519.208 31.8454L522.963 27.2775L526.718 0.664795L530.473 34.4653L534.229 30.1884L537.984 47.0159L541.739 55.6704L545.494 63.0485L549.249 65.31L553.004 62.4663L556.759 72.2739L560.514 69.2062L564.27 65.9818L568.025 66.3065L571.78 67.4597L575.535 72.1619L579.29 71.7029L583.045 67.1014L586.8 66.0266L590.555 62.4103L594.311 57.3945L598.066 71.5686L601.821 62.8581L605.576 38.0144L609.331 40.8582L613.086 35.5737L616.841 56.7676L620.597 52.737L624.352 52.5019L630 52.5803" stroke="#21B04A"/>
</svg>
