<svg width="22" height="18" viewBox="0 0 22 18" fill="none" xmlns="http://www.w3.org/2000/svg">
<path d="M0 5.55C0 3.86984 0 3.02976 0.33952 2.38803C0.638169 1.82354 1.11471 1.3646 1.70084 1.07698C2.36719 0.75 3.23948 0.75 4.98407 0.75H16.0425C17.7871 0.75 18.6594 0.75 19.3257 1.07698C19.9118 1.3646 20.3884 1.82354 20.687 2.38803C20.9471 2.87955 21.0079 3.48742 21.0222 4.5H15.5752C14.1238 4.5 13.3981 4.5 12.8256 4.72836C12.0623 5.03284 11.4559 5.61687 11.1398 6.35195C10.9027 6.90326 10.9027 7.60217 10.9027 9C10.9027 10.3978 10.9027 11.0967 11.1398 11.6481C11.4559 12.3831 12.0623 12.9672 12.8256 13.2716C13.3981 13.5 14.1238 13.5 15.5752 13.5H21.0222C21.0079 14.5126 20.9471 15.1205 20.687 15.612C20.3884 16.1765 19.9118 16.6354 19.3257 16.923C18.6594 17.25 17.7871 17.25 16.0425 17.25H4.98407C3.23948 17.25 2.36719 17.25 1.70084 16.923C1.11471 16.6354 0.638169 16.1765 0.33952 15.612C0 14.9702 0 14.1302 0 12.45L0 5.55Z" fill="white" fill-opacity="0.6"/>
<path fill-rule="evenodd" clip-rule="evenodd" d="M12.2655 8.8125C12.2655 7.7624 12.2655 7.23735 12.4777 6.83627C12.6643 6.48346 12.9622 6.19663 13.3285 6.01686C13.745 5.8125 14.2902 5.8125 15.3805 5.8125H18.885C19.9753 5.8125 20.5205 5.8125 20.937 6.01686C21.3033 6.19663 21.6011 6.48346 21.7878 6.83627C22 7.23735 22 7.7624 22 8.8125V9.1875C22 10.2376 22 10.7626 21.7878 11.1637C21.6011 11.5165 21.3033 11.8034 20.937 11.9831C20.5205 12.1875 19.9753 12.1875 18.885 12.1875H15.3805C14.2902 12.1875 13.745 12.1875 13.3285 11.9831C12.9622 11.8034 12.6643 11.5165 12.4777 11.1637C12.2655 10.7626 12.2655 10.2376 12.2655 9.1875V8.8125ZM17.1327 9C17.1327 9.82843 16.4354 10.5 15.5752 10.5C14.715 10.5 14.0177 9.82843 14.0177 9C14.0177 8.17157 14.715 7.5 15.5752 7.5C16.4354 7.5 17.1327 8.17157 17.1327 9Z" fill="white" fill-opacity="0.6"/>
<path d="M15.5752 10.5C16.4354 10.5 17.1327 9.82843 17.1327 9C17.1327 8.17157 16.4354 7.5 15.5752 7.5C14.715 7.5 14.0177 8.17157 14.0177 9C14.0177 9.82843 14.715 10.5 15.5752 10.5Z" fill="white" fill-opacity="0.6"/>
</svg>
