<svg width="15" height="16" viewBox="0 0 15 16" fill="none" xmlns="http://www.w3.org/2000/svg">
<path fill-rule="evenodd" clip-rule="evenodd" d="M3.13281 0.800781H5.93262C6.4849 0.800781 6.93262 1.2485 6.93262 1.80078V6.60156C6.93262 7.15385 6.4849 7.60156 5.93262 7.60156H1.13281C0.580528 7.60156 0.132812 7.15385 0.132812 6.60156V3.80078C0.132812 2.14393 1.47596 0.800781 3.13281 0.800781ZM1.13281 8.40156C0.580528 8.40156 0.132812 8.84928 0.132812 9.40156V12.2008C0.132812 13.8576 1.47596 15.2008 3.13281 15.2008H5.93262C6.4849 15.2008 6.93262 14.7531 6.93262 14.2008V9.40156C6.93262 8.84928 6.4849 8.40156 5.93262 8.40156H1.13281ZM8.73262 8.40156C8.18033 8.40156 7.73262 8.84928 7.73262 9.40156V14.2008C7.73262 14.7531 8.18033 15.2008 8.73262 15.2008H11.5328C13.1897 15.2008 14.5328 13.8576 14.5328 12.2008V9.40156C14.5328 8.84928 14.0851 8.40156 13.5328 8.40156H8.73262ZM13.5328 7.60156C14.0851 7.60156 14.5328 7.15385 14.5328 6.60156V3.80078C14.5328 2.14393 13.1897 0.800781 11.5328 0.800781H8.73262C8.18033 0.800781 7.73262 1.2485 7.73262 1.80078V6.60156C7.73262 7.15385 8.18033 7.60156 8.73262 7.60156H13.5328Z" fill="white"/>
</svg>
